<svg width="20" height="18" viewBox="0 0 20 18" fill="none" xmlns="http://www.w3.org/2000/svg">
<path d="M17.1891 2.81086C16.7738 2.39528 16.2806 2.06561 15.7377 1.84069C15.1949 1.61577 14.6131 1.5 14.0255 1.5C13.4379 1.5 12.8561 1.61577 12.3133 1.84069C11.7704 2.06561 11.2772 2.39528 10.8619 2.81086L9.99978 3.67293L9.13771 2.81086C8.29866 1.97181 7.16066 1.50043 5.97407 1.50043C4.78747 1.50043 3.64947 1.97181 2.81042 2.81086C1.97137 3.64991 1.5 4.78791 1.5 5.9745C1.5 7.1611 1.97137 8.29909 2.81042 9.13814L3.6725 10.0002L9.99978 16.3275L16.3271 10.0002L17.1891 9.13814C17.6047 8.72276 17.9344 8.22956 18.1593 7.68674C18.3842 7.14391 18.5 6.56208 18.5 5.9745C18.5 5.38692 18.3842 4.8051 18.1593 4.26227C17.9344 3.71944 17.6047 3.22624 17.1891 2.81086Z" stroke="#CCCCCC" stroke-width="2" stroke-linecap="round" stroke-linejoin="round"/>
</svg>
