<svg width="32" height="32" viewBox="0 0 32 32" fill="none" xmlns="http://www.w3.org/2000/svg">
<path d="M17.9389 7.4575C17.9389 10.3672 19.5409 11.8298 20.9209 13.2202C22.2409 14.5498 23.4975 15.8163 23.4975 18.2286C23.4975 22.1782 20.2806 25 16.1561 25C12.0306 25 8.4975 22.1921 8.4975 18.2286C8.4975 16.555 9.32207 14.9364 10.6481 14.2076C10.9095 14.0639 11.2241 14.2133 11.3364 14.4817C12.1944 16.5328 13.2521 16.4967 13.8006 15.9714C14.1332 15.6538 14.2035 15.0554 13.7972 14.279C11.7358 10.3294 15.3941 7.48376 17.3972 7.01182C17.6852 6.94451 17.9244 7.17433 17.9389 7.4575ZM16.1561 23.7688C19.6352 23.7688 22.2118 21.4378 22.2118 18.2286C22.2118 16.3104 21.2749 15.3649 19.9164 13.995L19.8984 13.9761C18.6641 12.731 17.2078 11.2257 16.7706 8.59428C16.1234 8.95857 15.5649 9.45109 15.1326 10.0388C14.4581 10.9778 14.1495 12.2 14.9475 13.7282C15.4644 14.7173 15.6135 15.9772 14.7101 16.8423C14.1469 17.3815 13.1998 17.7451 12.1764 17.3233C11.5318 17.0573 11.0166 16.5394 10.6009 15.8541C10.1149 16.4335 9.78321 17.2822 9.78321 18.2286C9.78321 21.3861 12.6015 23.7688 16.1561 23.7688Z" fill="#FFC700"/>
<path d="M16.1561 23.7688C19.6352 23.7688 22.2118 21.4378 22.2118 18.2286C22.2118 16.3104 21.2749 15.3649 19.9164 13.995L19.8984 13.9761C18.6641 12.731 17.2078 11.2257 16.7706 8.59428C16.1234 8.95857 15.5649 9.45109 15.1326 10.0388C14.4581 10.9778 14.1495 12.2 14.9475 13.7282C15.4644 14.7173 15.6135 15.9772 14.7101 16.8423C14.1469 17.3815 13.1998 17.7451 12.1764 17.3233C11.5318 17.0573 11.0166 16.5394 10.6009 15.8541C10.1149 16.4335 9.78321 17.2822 9.78321 18.2286C9.78321 21.3861 12.6015 23.7688 16.1561 23.7688Z" fill="#FFC700"/>
<rect x="0.53125" y="0.53125" width="30.9375" height="30.9375" rx="15.4688" stroke="#FFC700" stroke-width="1.0625"/>
</svg>
