<svg width="20" height="24" viewBox="0 0 20 24" fill="none" xmlns="http://www.w3.org/2000/svg">
<path fill-rule="evenodd" clip-rule="evenodd" d="M12.3577 8C12.0145 9.16519 11.0885 10 9.99998 10C8.91146 10 7.98543 9.16519 7.64223 8H5.00212H2.49998V6H7.64223C7.98543 4.83481 8.91146 4 9.99998 4C11.0885 4 12.0145 4.83481 12.3577 6H17.5V8H15.0021H12.3577ZM15.0021 8L16.1292 10.165L16.225 10.3492L18.1255 14L18.8387 15.37L19.1666 16C19.1666 18.7614 17.3012 21 15 21C12.6988 21 10.8333 18.7614 10.8333 16L11.1613 15.3705L11.8755 14L13.7786 10.348L13.8742 10.1646L15.0021 8ZM5.00212 8L6.12917 10.165L6.22501 10.3492L8.12551 14L8.83871 15.37L9.16665 16C9.16665 18.7614 7.30117 21 4.99998 21C2.69879 21 0.833313 18.7614 0.833313 16L1.16132 15.3705L1.87551 14L3.77859 10.348L3.87416 10.1646L5.00212 8ZM7.11862 15L6.1318 13.1339L5.35127 11.6578L5.00139 10.9962L4.65107 11.657L3.86875 13.1327L2.87881 15H7.11862ZM12.8788 15L13.8688 13.1327L14.6511 11.657L15.0014 10.9962L15.3513 11.6578L16.1318 13.1339L17.1186 15H12.8788Z" fill="#FDC83E"/>
<mask id="mask0_727_2514" style="mask-type:alpha" maskUnits="userSpaceOnUse" x="0" y="4" width="20" height="17">
<path fill-rule="evenodd" clip-rule="evenodd" d="M12.3577 8C12.0145 9.16519 11.0885 10 9.99998 10C8.91146 10 7.98543 9.16519 7.64223 8H5.00212H2.49998V6H7.64223C7.98543 4.83481 8.91146 4 9.99998 4C11.0885 4 12.0145 4.83481 12.3577 6H17.5V8H15.0021H12.3577ZM15.0021 8L16.1292 10.165L16.225 10.3492L18.1255 14L18.8387 15.37L19.1666 16C19.1666 18.7614 17.3012 21 15 21C12.6988 21 10.8333 18.7614 10.8333 16L11.1613 15.3705L11.8755 14L13.7786 10.348L13.8742 10.1646L15.0021 8ZM5.00212 8L6.12917 10.165L6.22501 10.3492L8.12551 14L8.83871 15.37L9.16665 16C9.16665 18.7614 7.30117 21 4.99998 21C2.69879 21 0.833313 18.7614 0.833313 16L1.16132 15.3705L1.87551 14L3.77859 10.348L3.87416 10.1646L5.00212 8ZM7.11862 15L6.1318 13.1339L5.35127 11.6578L5.00139 10.9962L4.65107 11.657L3.86875 13.1327L2.87881 15H7.11862ZM12.8788 15L13.8688 13.1327L14.6511 11.657L15.0014 10.9962L15.3513 11.6578L16.1318 13.1339L17.1186 15H12.8788Z" fill="white"/>
</mask>
<g mask="url(#mask0_727_2514)">
<rect x="-10.8333" y="-13" width="41.6667" height="50" fill="#CCCCCC"/>
<mask id="mask1_727_2514" style="mask-type:alpha" maskUnits="userSpaceOnUse" x="-11" y="-13" width="42" height="50">
<rect x="-10.8333" y="-13" width="41.6667" height="50" fill="white"/>
</mask>
<g mask="url(#mask1_727_2514)">
</g>
</g>
</svg>
